<svg width="835" height="835" viewBox="0 0 835 835" fill="none" xmlns="http://www.w3.org/2000/svg">
<g clip-path="url(#clip0_424_17603)">
<path d="M297.773 144.721L272.43 119.233L276.764 89.6473L306.44 85.5507L331.783 111.039L327.45 140.625L297.773 144.721Z" stroke="#D3B031" stroke-width="3.5433" stroke-linecap="round"/>
<path d="M318.664 199.588L293.321 174.1L297.655 144.515L327.331 140.418L352.674 165.906L348.341 195.492L318.664 199.588Z" stroke="#D3B031" stroke-width="3.5433" stroke-linecap="round"/>
<path d="M352.728 165.847L327.385 140.359L331.719 110.773L361.395 106.677L386.738 132.165L382.405 161.75L352.728 165.847Z" stroke="#D3B031" stroke-width="3.5433" stroke-linecap="round"/>
<path d="M373.618 220.712L348.275 195.224L352.609 165.639L382.286 161.542L407.629 187.03L403.295 216.616L373.618 220.712Z" stroke="#D3B031" stroke-width="3.5433" stroke-linecap="round"/>
<path d="M284.747 233.829L259.404 208.34L263.737 178.755L293.414 174.658L318.757 200.147L314.423 229.732L284.747 233.829Z" stroke="#D3B031" stroke-width="3.5433" stroke-linecap="round"/>
<path d="M305.636 288.694L280.293 263.205L284.627 233.62L314.304 229.523L339.647 255.012L335.313 284.597L305.636 288.694Z" stroke="#D3B031" stroke-width="3.5433" stroke-linecap="round"/>
<path d="M339.705 254.957L314.362 229.468L318.696 199.883L348.372 195.786L373.715 221.275L369.382 250.86L339.705 254.957Z" stroke="#D3B031" stroke-width="3.5433" stroke-linecap="round"/>
<path d="M360.595 309.822L335.252 284.333L339.585 254.748L369.262 250.651L394.605 276.14L390.271 305.725L360.595 309.822Z" stroke="#D3B031" stroke-width="3.5433" stroke-linecap="round"/>
<path d="M394.353 275.077L369.01 249.588L373.344 220.003L403.021 215.906L428.364 241.395L424.03 270.98L394.353 275.077Z" stroke="#D3B031" stroke-width="3.5433" stroke-linecap="round"/>
<path d="M415.243 329.943L389.9 304.454L394.234 274.869L423.91 270.772L449.253 296.261L444.919 325.846L415.243 329.943Z" stroke="#D3B031" stroke-width="3.5433" stroke-linecap="round"/>
<path d="M449.312 296.206L423.969 270.717L428.302 241.132L457.979 237.035L483.322 262.524L478.988 292.109L449.312 296.206Z" stroke="#D3B031" stroke-width="3.5433" stroke-linecap="round"/>
<path d="M470.201 351.071L444.858 325.582L449.192 295.997L478.868 291.9L504.211 317.389L499.878 346.974L470.201 351.071Z" stroke="#D3B031" stroke-width="3.5433" stroke-linecap="round"/>
<path d="M381.333 364.184L355.99 338.695L360.323 309.11L390 305.014L415.343 330.502L411.009 360.087L381.333 364.184Z" stroke="#D3B031" stroke-width="3.5433" stroke-linecap="round"/>
<path d="M402.222 419.049L376.879 393.561L381.213 363.975L410.889 359.879L436.232 385.367L431.899 414.953L402.222 419.049Z" stroke="#D3B031" stroke-width="3.5433" stroke-linecap="round"/>
<path d="M436.287 385.308L410.944 359.819L415.278 330.234L444.954 326.138L470.297 351.626L465.964 381.211L436.287 385.308Z" stroke="#D3B031" stroke-width="3.5433" stroke-linecap="round"/>
<path d="M457.177 440.173L431.834 414.685L436.167 385.099L465.844 381.003L491.187 406.491L486.853 436.077L457.177 440.173Z" stroke="#D3B031" stroke-width="3.5433" stroke-linecap="round"/>
<path d="M271.661 322.67L246.318 297.182L250.651 267.597L280.328 263.5L305.671 288.988L301.337 318.574L271.661 322.67Z" stroke="#D3B031" stroke-width="3.5433" stroke-linecap="round"/>
<path d="M292.55 377.536L267.207 352.047L271.541 322.462L301.217 318.365L326.56 343.854L322.227 373.439L292.55 377.536Z" stroke="#D3B031" stroke-width="3.5433" stroke-linecap="round"/>
<path d="M326.619 343.798L301.276 318.31L305.609 288.724L335.286 284.628L360.629 310.116L356.295 339.702L326.619 343.798Z" stroke="#D3B031" stroke-width="3.5433" stroke-linecap="round"/>
<path d="M347.508 398.664L322.165 373.175L326.499 343.59L356.176 339.493L381.519 364.982L377.185 394.567L347.508 398.664Z" stroke="#D3B031" stroke-width="3.5433" stroke-linecap="round"/>
<path d="M258.64 411.777L233.297 386.288L237.63 356.703L267.307 352.606L292.65 378.095L288.316 407.68L258.64 411.777Z" stroke="#D3B031" stroke-width="3.5433" stroke-linecap="round"/>
<path d="M279.529 466.642L254.186 441.153L258.52 411.568L288.197 407.472L313.54 432.96L309.206 462.545L279.529 466.642Z" stroke="#D3B031" stroke-width="3.5433" stroke-linecap="round"/>
<path d="M313.594 432.901L288.251 407.412L292.585 377.827L322.261 373.73L347.604 399.219L343.271 428.804L313.594 432.901Z" stroke="#D3B031" stroke-width="3.5433" stroke-linecap="round"/>
<path d="M334.484 487.766L309.141 462.278L313.474 432.692L343.151 428.596L368.494 454.084L364.16 483.669L334.484 487.766Z" stroke="#D3B031" stroke-width="3.5433" stroke-linecap="round"/>
<path d="M368.246 453.025L342.903 427.536L347.237 397.951L376.913 393.854L402.256 419.343L397.923 448.928L368.246 453.025Z" stroke="#D3B031" stroke-width="3.5433" stroke-linecap="round"/>
<path d="M389.136 507.891L363.793 482.403L368.127 452.817L397.803 448.721L423.146 474.209L418.812 503.794L389.136 507.891Z" stroke="#D3B031" stroke-width="3.5433" stroke-linecap="round"/>
<path d="M423.201 474.15L397.858 448.661L402.191 419.076L431.868 414.979L457.211 440.468L452.877 470.053L423.201 474.15Z" stroke="#D3B031" stroke-width="3.5433" stroke-linecap="round"/>
<path d="M444.09 529.015L418.747 503.527L423.081 473.941L452.757 469.845L478.1 495.333L473.767 524.918L444.09 529.015Z" stroke="#D3B031" stroke-width="3.5433" stroke-linecap="round"/>
<path d="M355.219 542.131L329.876 516.643L334.209 487.058L363.886 482.961L389.229 508.449L384.895 538.035L355.219 542.131Z" stroke="#D3B031" stroke-width="3.5433" stroke-linecap="round"/>
<path d="M376.108 596.997L350.765 571.508L355.099 541.923L384.775 537.826L410.118 563.315L405.785 592.9L376.108 596.997Z" stroke="#D3B031" stroke-width="3.5433" stroke-linecap="round"/>
<path d="M410.177 563.259L384.834 537.771L389.168 508.185L418.844 504.089L444.187 529.577L439.854 559.163L410.177 563.259Z" stroke="#D3B031" stroke-width="3.5433" stroke-linecap="round"/>
<path d="M431.067 618.124L405.724 592.636L410.057 563.051L439.734 558.954L465.077 584.443L460.743 614.028L431.067 618.124Z" stroke="#D3B031" stroke-width="3.5433" stroke-linecap="round"/>
<path d="M477.791 494.328L452.448 468.839L456.782 439.254L486.458 435.157L511.801 460.646L507.468 490.231L477.791 494.328Z" stroke="#D3B031" stroke-width="3.5433" stroke-linecap="round"/>
<path d="M498.681 549.193L473.338 523.704L477.671 494.119L507.348 490.022L532.691 515.511L528.357 545.096L498.681 549.193Z" stroke="#D3B031" stroke-width="3.5433" stroke-linecap="round"/>
<path d="M532.75 515.456L507.407 489.967L511.74 460.382L541.417 456.285L566.76 481.774L562.426 511.359L532.75 515.456Z" stroke="#D3B031" stroke-width="3.5433" stroke-linecap="round"/>
<path d="M553.639 570.321L528.296 544.832L532.63 515.247L562.306 511.15L587.649 536.639L583.316 566.224L553.639 570.321Z" stroke="#D3B031" stroke-width="3.5433" stroke-linecap="round"/>
<path d="M464.768 583.437L439.425 557.948L443.758 528.363L473.435 524.267L498.778 549.755L494.444 579.34L464.768 583.437Z" stroke="#D3B031" stroke-width="3.5433" stroke-linecap="round"/>
<path d="M485.657 638.303L460.314 612.815L464.648 583.229L494.324 579.133L519.667 604.621L515.334 634.207L485.657 638.303Z" stroke="#D3B031" stroke-width="3.5433" stroke-linecap="round"/>
<path d="M519.726 604.566L494.383 579.077L498.716 549.492L528.393 545.395L553.736 570.884L549.402 600.469L519.726 604.566Z" stroke="#D3B031" stroke-width="3.5433" stroke-linecap="round"/>
<path d="M540.631 659.447L515.288 633.958L519.622 604.373L549.298 600.276L574.641 625.765L570.308 655.35L540.631 659.447Z" stroke="#D3B031" stroke-width="3.5433" stroke-linecap="round"/>
<path d="M574.607 625.471L549.264 599.983L553.598 570.397L583.274 566.301L608.617 591.789L604.284 621.375L574.607 625.471Z" stroke="#D3B031" stroke-width="3.5433" stroke-linecap="round"/>
<path d="M595.496 680.336L570.153 654.848L574.487 625.263L604.164 621.166L629.507 646.655L625.173 676.24L595.496 680.336Z" stroke="#D3B031" stroke-width="3.5433" stroke-linecap="round"/>
<path d="M629.557 646.591L604.214 621.103L608.548 591.517L638.225 587.421L663.568 612.909L659.234 642.495L629.557 646.591Z" stroke="#D3B031" stroke-width="3.5433" stroke-linecap="round"/>
<path d="M650.447 701.457L625.104 675.968L629.438 646.383L659.114 642.286L684.457 667.775L680.124 697.36L650.447 701.457Z" stroke="#D3B031" stroke-width="3.5433" stroke-linecap="round"/>
<path d="M491.033 405.994L465.69 380.505L470.024 350.92L499.7 346.823L525.043 372.312L520.71 401.897L491.033 405.994Z" stroke="#D3B031" stroke-width="3.5433" stroke-linecap="round"/>
<path d="M511.923 460.859L486.58 435.37L490.913 405.785L520.59 401.688L545.933 427.177L541.599 456.762L511.923 460.859Z" stroke="#D3B031" stroke-width="3.5433" stroke-linecap="round"/>
<path d="M545.987 427.118L520.644 401.629L524.978 372.044L554.655 367.947L579.998 393.436L575.664 423.021L545.987 427.118Z" stroke="#D3B031" stroke-width="3.5433" stroke-linecap="round"/>
<path d="M566.877 481.983L541.534 456.494L545.868 426.909L575.544 422.812L600.887 448.301L596.554 477.886L566.877 481.983Z" stroke="#D3B031" stroke-width="3.5433" stroke-linecap="round"/>
<path d="M622.173 504.17L596.83 478.682L601.163 449.097L630.84 445L656.183 470.488L651.849 500.074L622.173 504.17Z" stroke="#D3B031" stroke-width="3.5433" stroke-linecap="round"/>
<path d="M504.056 316.884L478.713 291.396L483.047 261.81L512.723 257.714L538.066 283.202L533.733 312.788L504.056 316.884Z" stroke="#D3B031" stroke-width="3.5433" stroke-linecap="round"/>
<path d="M524.946 371.748L499.603 346.26L503.937 316.675L533.614 312.578L558.957 338.067L554.623 367.652L524.946 371.748Z" stroke="#D3B031" stroke-width="3.5433" stroke-linecap="round"/>
<path d="M559.014 338.012L533.671 312.524L538.005 282.938L567.681 278.842L593.024 304.33L588.691 333.916L559.014 338.012Z" stroke="#D3B031" stroke-width="3.5433" stroke-linecap="round"/>
<path d="M579.904 392.877L554.561 367.389L558.894 337.804L588.571 333.707L613.914 359.196L609.58 388.781L579.904 392.877Z" stroke="#D3B031" stroke-width="3.5433" stroke-linecap="round"/>
<path d="M161.961 280.862L136.618 255.373L140.952 225.788L170.628 221.691L195.971 247.18L191.637 276.765L161.961 280.862Z" stroke="#D3B031" stroke-width="3.5433" stroke-linecap="round"/>
<path d="M182.85 335.726L157.507 310.237L161.84 280.652L191.517 276.556L216.86 302.044L212.526 331.629L182.85 335.726Z" stroke="#D3B031" stroke-width="3.5433" stroke-linecap="round"/>
<path d="M216.918 301.989L191.575 276.5L195.909 246.915L225.586 242.818L250.929 268.307L246.595 297.892L216.918 301.989Z" stroke="#D3B031" stroke-width="3.5433" stroke-linecap="round"/>
<path d="M237.808 356.854L212.465 331.365L216.799 301.78L246.475 297.684L271.818 323.172L267.484 352.757L237.808 356.854Z" stroke="#D3B031" stroke-width="3.5433" stroke-linecap="round"/>
<path d="M175.081 192.314L149.738 166.825L154.071 137.24L183.748 133.143L209.091 158.632L204.757 188.217L175.081 192.314Z" stroke="#D3B031" stroke-width="3.5433" stroke-linecap="round"/>
<path d="M195.97 247.179L170.627 221.691L174.961 192.105L204.637 188.009L229.98 213.497L225.647 243.083L195.97 247.179Z" stroke="#D3B031" stroke-width="3.5433" stroke-linecap="round"/>
<path d="M230.037 213.441L204.694 187.952L209.028 158.367L238.704 154.27L264.047 179.759L259.714 209.344L230.037 213.441Z" stroke="#D3B031" stroke-width="3.5433" stroke-linecap="round"/>
<path d="M250.926 268.305L225.583 242.817L229.916 213.231L259.593 209.135L284.936 234.623L280.602 264.208L250.926 268.305Z" stroke="#D3B031" stroke-width="3.5433" stroke-linecap="round"/>
<path d="M148.936 369.97L123.593 344.482L127.927 314.896L157.604 310.8L182.947 336.288L178.613 365.874L148.936 369.97Z" stroke="#D3B031" stroke-width="3.5433" stroke-linecap="round"/>
<path d="M169.826 424.836L144.483 399.348L148.816 369.763L178.493 365.666L203.836 391.155L199.502 420.74L169.826 424.836Z" stroke="#D3B031" stroke-width="3.5433" stroke-linecap="round"/>
<path d="M203.891 391.095L178.548 365.607L182.881 336.021L212.558 331.925L237.901 357.413L233.567 386.999L203.891 391.095Z" stroke="#D3B031" stroke-width="3.5433" stroke-linecap="round"/>
<path d="M224.78 445.96L199.437 420.472L203.771 390.887L233.447 386.79L258.79 412.279L254.457 441.864L224.78 445.96Z" stroke="#D3B031" stroke-width="3.5433" stroke-linecap="round"/>
<path d="M396.998 651.862L371.655 626.373L375.988 596.788L405.665 592.691L431.008 618.18L426.674 647.765L396.998 651.862Z" stroke="#D3B031" stroke-width="3.5433" stroke-linecap="round"/>
<path d="M417.887 706.728L392.544 681.239L396.878 651.654L426.554 647.558L451.897 673.046L447.564 702.631L417.887 706.728Z" stroke="#D3B031" stroke-width="3.5433" stroke-linecap="round"/>
<path d="M451.956 672.991L426.613 647.502L430.947 617.917L460.623 613.82L485.966 639.309L481.633 668.894L451.956 672.991Z" stroke="#D3B031" stroke-width="3.5433" stroke-linecap="round"/>
<path d="M472.849 727.86L447.506 702.371L451.84 672.786L481.517 668.689L506.86 694.178L502.526 723.763L472.849 727.86Z" stroke="#D3B031" stroke-width="3.5433" stroke-linecap="round"/>
<path d="M245.518 500.322L220.175 474.833L224.509 445.248L254.185 441.151L279.528 466.64L275.195 496.225L245.518 500.322Z" stroke="#D3B031" stroke-width="3.5433" stroke-linecap="round"/>
<path d="M266.408 555.187L241.065 529.698L245.398 500.113L275.075 496.017L300.418 521.505L296.084 551.09L266.408 555.187Z" stroke="#D3B031" stroke-width="3.5433" stroke-linecap="round"/>
<path d="M300.477 521.45L275.134 495.961L279.467 466.376L309.144 462.279L334.487 487.768L330.153 517.353L300.477 521.45Z" stroke="#D3B031" stroke-width="3.5433" stroke-linecap="round"/>
<path d="M321.366 576.316L296.023 550.827L300.357 521.242L330.033 517.145L355.376 542.634L351.043 572.219L321.366 576.316Z" stroke="#D3B031" stroke-width="3.5433" stroke-linecap="round"/>
</g>
<defs>
<clipPath id="clip0_424_17603">
<rect width="770" height="410" fill="white" transform="translate(289.914) rotate(45)"/>
</clipPath>
</defs>
</svg>
